<?xml version="1.0" encoding="UTF-8"?><svg id="Layer_1" xmlns="http://www.w3.org/2000/svg" viewBox="0 0 451.45 464.63"><defs><style>.cls-1{fill:#fff;}.cls-2{fill:#ca3428;}.cls-3{fill:#3080bb;}.cls-4{fill:#fbfbf9;}.cls-5{fill:#51a947;}.cls-6{fill:#fcfdfc;}.cls-7{fill:#f7f9f7;}.cls-8{fill:#f8fafa;}.cls-9{fill:#fbfcfc;}.cls-10{fill:#f9f7f5;}.cls-11{stroke:#fff;stroke-miterlimit:10;stroke-width:10px;}.cls-11,.cls-12{fill:#ef7c22;}</style></defs><rect class="cls-5" x="234.71" width="216.75" height="226.62" rx="2.21" ry="2.21"/><rect class="cls-3" x=".51" width="219.08" height="226.62" rx="2.21" ry="2.21"/><rect class="cls-12" x="234.2" y="238.01" width="216.75" height="226.62" rx="2.21" ry="2.21"/><rect class="cls-2" y="238.01" width="219.08" height="226.62" rx="2.21" ry="2.21"/><ellipse class="cls-11" cx="226.15" cy="238.01" rx="66.76" ry="67.13"/><g><path class="cls-1" d="M200.3,205.06c-4.69,0-8.5,3.82-8.5,8.54v22.3l41.98-30.84h-33.48Z"/><path class="cls-1" d="M191.8,263.57c0,4.73,3.81,8.54,8.5,8.54h6.99v-34.98l-15.49,11.4v15.04Z"/><path class="cls-1" d="M246.06,204.92l.04,3.65v63.55h3.89c4.69,0,8.5-3.82,8.5-8.54v-49.97c0-4.46,.84-10.17-12.43-8.68Z"/><polygon class="cls-1" points="225.75 244.46 225.82 233.78 235.38 226.49 235.38 216.53 217.03 230.17 217.03 272.11 225.57 272.11 225.7 253 235.38 246.39 235.38 237.32 225.75 244.46"/></g><g><path class="cls-6" d="M363.84,389.93c-.27,4.49,3.03,6.36,6.17,8.15,6.69,3.81,14.19,5.69,21.29,8.5,7.86,3.11,14.96,7.18,20.8,13.35,1.32,1.39,2.14,3.05,2.47,4.99,.59,3.47-.75,5.47-4.23,5.92-1.07,.14-2.16,.13-3.23,.13-39.7,0-79.41,0-119.11-.02-2.16,0-4.32-.07-6.47-.25-5.2-.43-6.94-3.46-4.31-8.01,3.42-5.92,8.95-9.54,14.82-12.64,7.61-4.02,15.88-6.38,23.82-9.56,2.72-1.09,5.55-2.06,7.75-4.14,4.33-4.09,5.9-15.14,2.63-20.22-3.85-5.99-6.83-12.17-6.86-19.52-.01-3-2.49-5.22-3.1-8.2-.95-4.56-1.44-8.82,.01-13.5,1-3.23,.22-6.98,.43-10.49,.66-11.3,5.26-20.47,16.3-24.19,11.85-3.99,23.76-3.77,33.61,5.55,5.79,5.48,7.67,12.78,7.8,20.62,.06,3.48-.65,7.06,.98,10.4,3.51,16.02-4.47,27.01-20.16,28.64-1.92,.2-3.67-.68-5.48-1.17-6.47-1.76-11.47,2.43-10.1,8.33,1.14,4.94,6.53,7.06,11.25,4.11,3.67-2.3,7.65-3.33,11.79-3.88,3.16-.42,4.16,.93,2.63,3.74-2.35,4.31-2.07,8.79-1.48,13.36Z"/><path class="cls-10" d="M378.55,335.05c4.11-10.17,1.02-19.39-5.04-27.29-10.81-14.09-25.42-17.72-42.09-11.6-12.01,4.41-23.01,21.63-20.64,34.03,1.34,7,1.46,13.94,1.96,20.93,.19,2.6,1.07,5.67-2.94,6.41-4.21,.78-8.46-.93-9.32-4.36-1.32-5.27-1.53-10.7-.86-16.12,.18-1.48,.78-3.1,2.17-3.74,3.27-1.52,3.44-4.29,3.61-7.34,.84-15.36,8.47-26.41,21.75-33.6,24.89-13.48,56.87,4.5,58.5,32.84,.19,3.37-.32,6.88,3.81,8.42,.43,.16,.68,.81,.99,1.25,2.45,3.45,1.12,17.79-1.91,20.71-.29,.28-.45,.85-.75,.91-8.03,1.67-11.74,9.88-19.03,12.65-3.36,1.58-6.62,3.48-10.35,4.08-2.97,.48-5.64,1.4-8.13,3.25-2.63,1.96-6.33,1.35-8.49-.91-1.86-1.94-2.2-5.99-.7-8.35,1.53-2.42,5.12-3.98,7.82-2.48,4.36,2.42,8.37,1.19,12.45-.17,5.16-1.71,10.1-4,13.66-8.29,2.46-2.98,2.13-6.87,2.34-10.49,.21-3.61-.39-7.31,1.21-10.76Z"/><path class="cls-12" d="M378.55,335.05c-.2,6.22-.43,12.44-.6,18.66-.07,2.7-2.23,4-3.88,5.37-5.4,4.49-11.78,6.98-18.64,8.28-2.04,.39-3.8,.37-5.66-1.09-2.64-2.07-5.56-1.3-7.5,1.12-1.93,2.41-1.99,5.54,.36,7.71,2.37,2.18,5.39,2.59,7.93-.04,1.41-1.46,3.04-2,4.94-2.43,4.44-1.01,8.83-2.29,13.23-3.47,0,2.37-2.12,1.5-3.64,2.18,2.32,2.02,2.85,4.05,.91,6.57-2.74,3.56-1.83,7.94-2.16,12.03-.7-4.91-2.05-9.86,1.11-14.48,.36-.52,.82-1.24,.14-1.76-.34-.26-1.07-.26-1.51-.09-4.07,1.57-8.69,1.24-12.36,4.46-3,2.63-7.94,1.68-10.7-1.22-2.79-2.92-3.04-7.86-.57-11.22,2.33-3.17,6.97-4.11,10.97-2.21,4.55,2.15,18.55-1.96,20.41-6.31,2.75-6.45,5.34-13.01,4.08-20.31,2.67,2.36,1.65-1.97,3.14-1.75Z"/></g><g><path class="cls-9" d="M277.04,114.73c-.56-41.77,36.67-73.28,77.44-66.11,8.05,1.42,15.32,4.41,22.42,8.21,3.75,2.01,1.87,5.18,1.99,7.95,.11,2.7-1.68,4.24-3.67,5.53-.99,.64-1.61-.41-2.34-.89-33.03-21.9-76.78-2.9-82.76,36.57-4.64,30.58,16.44,57.04,45.13,61.06,35.34,4.94,64.65-24,60.86-59.79-.85-8.07-3.59-15.71-8.3-22.41-1.85-2.63-1.66-4.32,.96-6.04,3.74-2.46,9.73-1.25,11.85,2.51,18.19,32.25,6.05,73.99-26.55,91.34-39.43,20.98-87.62-2.42-96.09-46.61-.74-3.87-.78-7.76-.95-11.33Z"/><path class="cls-9" d="M344.85,72.39c5.51-.3,12.03,2.07,18.37,5.12,2.74,1.32,2.86,2.32,.64,4.99-4.17,4.99-8.12,5.38-14.3,3.59-11.47-3.33-21.63,.62-29,9.98-7.36,9.35-8.48,19.95-3.13,30.71,5.62,11.3,17.23,17.46,29,15.95,12.25-1.57,22.41-11.03,24.8-23.53,1.01-5.29,.86-10.76-1.6-15.67-1.54-3.08-.72-4.79,1.46-7.03,7.13-7.3,6.17-7.62,10.37,2.29,11.02,26.02-9.29,56.58-37.45,56.6-17.05,.01-30.06-7.48-37.78-22.71-7.65-15.1-6.23-30.1,3.81-43.75,8.12-11.04,19.43-16.37,34.81-16.54Z"/><path class="cls-8" d="M343.33,117.43c-1.68-.21-2.83-.82-3.39-2.11-.64-1.47-.13-2.85,.88-3.95,2.18-2.37,4.39-4.71,6.66-6.99,11.02-11.06,22.04-22.12,33.12-33.12,1.6-1.59,2.45-3.36,2.38-5.53-.14-4.72,1.71-8.48,4.95-11.82,2.7-2.78,5.07-5.9,7.62-8.83,.66-.76,1.41-1.77,2.56-1.25,.97,.44,.59,1.6,.7,2.46,.18,1.42,.39,2.83,.51,4.25,.58,6.57,.69,6.59,7.42,7.04,2.1,.14,5.26-1.01,6.04,1.18,.78,2.22-2.51,3.15-3.99,4.64-1.99,2.02-4.37,3.65-6.36,5.67-3.19,3.26-7.04,4.81-11.48,4.71-2.59-.06-4.41,1.07-6.1,2.79-12.48,12.63-24.97,25.26-37.48,37.86-1.25,1.26-2.42,2.69-4.04,3Z"/><path class="cls-7" d="M343.26,130.47c-9.83,.09-17.36-7.66-16.82-17.31,.55-9.86,9.17-17.02,18.82-15.73,2.23,.3,2.5,1.12,1.03,2.64-2.7,2.8-5.5,5.51-8.2,8.31-3.33,3.44-3.39,7.93-.23,11.08,2.97,2.96,7.29,2.78,10.69-.49,2.79-2.69,5.52-5.45,8.28-8.17,.54-.53,1.06-1.35,1.92-.99,.84,.35,.69,1.31,.79,2.06,1.39,10.32-7.81,19.41-16.29,18.61Z"/></g><g><path class="cls-6" d="M165.22,123.45c0,11.34-.09,22.67,.05,34.01,.05,3.67-1.36,5.17-4.97,5.05-4.02-.14-8.06-.16-12.08-.02-3.86,.14-4.85-2.03-4.85-5.33,.01-12.01-.01-24.02,0-36.03,0-10.53,0-21.05,.05-31.58,.03-4.74,.96-5.62,5.69-5.63,3.76-.01,7.52,.09,11.28,.05,3.48-.04,4.97,1.32,4.91,5.08-.2,11.47-.07,22.94-.08,34.41Z"/><path class="cls-4" d="M156.54,53.21c-6.14,9.47-12.69,17.28-20.24,24.25-11.66,10.76-24.99,18.79-39.48,25.1-11.33,4.94-23,8.47-35.28,9.84-3.46,.38-6.97,.39-10.45,.37-2.21-.02-3.99-.96-3.88-3.59,.12-2.67,1.66-3.62,4.28-3.61,22.86,.12,43.06-8.35,62.2-19.92,13.82-8.35,25.16-19.49,34.47-32.69,.87-1.23,2.68-2.84,1.83-4.17-.95-1.49-2.92-.07-4.39,.25-2.35,.52-4.62,1.4-6.98,1.85-1.76,.34-3.64,.16-4.2-2.06-.57-2.28,.25-4.09,2.55-4.77,6.9-2.05,13.83-4,20.75-5.95,3.26-.92,5.03,.92,5.39,3.76,.87,6.81,1.44,13.66,1.99,20.5,.15,1.92,.49,4.18-2.61,4.46-2.87,.26-4.07-.9-4.33-3.74-.27-2.92-.93-5.81-1.62-9.87Z"/><path class="cls-6" d="M133.04,133.94c0,7.95-.09,15.9,.04,23.85,.05,3.35-.99,4.93-4.6,4.71-4.14-.25-8.31-.12-12.47-.01-3.19,.08-4.75-1.29-4.75-4.52,.04-15.9,.05-31.81,.07-47.71,0-3.27,1.24-4.94,4.85-4.7,4.14,.28,8.32,.26,12.46,.03,3.42-.19,4.49,1.31,4.45,4.49-.09,7.95-.03,15.9-.03,23.85h-.03Z"/><path class="cls-6" d="M100.82,140.65c0,5.93-.03,11.86,.01,17.79,.02,2.93-1.42,4.09-4.24,4.05-4.29-.07-8.59-.15-12.88,0-3.13,.12-4.63-1.48-4.64-4.28-.04-11.33,.09-22.66,.16-33.98,.02-3.33,1.56-4.88,5-4.74,3.89,.15,7.79,.09,11.67-.04,3.55-.12,5.08,1.42,4.99,5.01-.13,5.39-.03,10.79-.03,16.18h-.05Z"/><path class="cls-6" d="M47.06,143.24c0-4.86,.02-9.72,0-14.59-.02-2.79,1.13-4.15,4.07-4.08,4.43,.1,8.87-.03,13.3-.07,2.56-.02,4.38,.72,4.37,3.79-.05,10.26-.02,20.51-.06,30.77,0,2.51-1.37,3.47-3.83,3.42-4.43-.09-8.87-.01-13.3,.04-3.18,.04-4.66-1.47-4.62-4.69,.07-4.86,.02-9.72,.02-14.59h.06Z"/></g><g><path class="cls-6" d="M90.11,344.19c12.35,0,24.7-.1,37.05,.04,6.48,.07,9.69,3.55,9.7,10.13,.03,15.72-.02,31.44-.04,47.17,0,7.35-3.09,10.64-10.79,10.78-15.36,.28-30.74,.16-46.1,.02-3.01-.03-5.13,.91-7.16,3.05-4.09,4.33-8.42,8.44-12.61,12.67-.97,.98-2.09,2.42-3.28,2.01-1.64-.57-1.25-2.54-1.26-4.03-.02-3.45-.04-6.9-.02-10.34,.01-2.26-.66-3.31-3.29-3.47-7.56-.47-10.24-3.64-10.23-11.31,.01-15.31,.01-30.62,.01-45.92,0-7.49,2.79-10.66,10.18-10.75,11.25-.14,22.5,.02,33.75,.05,1.37,0,2.74,0,4.11,0v-.09Z"/><path class="cls-6" d="M137.81,316.76c12.76,0,25.52-.03,38.28,.01,6.99,.02,10.59,3.59,10.62,10.63,.06,15.44,.06,30.89,0,46.33-.03,7.45-3.12,10.77-10.43,10.91-2.76,.05-3.2,1.4-3.22,3.56-.04,3.86-.06,7.72-.17,11.57-.03,1.07-.04,2.43-1.3,2.78-1.25,.35-2.13-.37-3.09-1.4-4.38-4.67-8.96-9.15-13.45-13.71-1.83-1.86-4-3.04-6.62-2.62-4.22,.68-4.93-1.28-4.81-5.07,.28-8.4,.21-16.82,.04-25.23-.14-6.92-2.76-12.57-9.38-15.65-2.78-1.29-5.8-1.48-8.82-1.49-11.39-.01-22.78-.1-34.16,.06-3.04,.04-4.33-.9-4.07-3.98,.13-1.5,.02-3.03-.03-4.55-.27-9.16,3.07-12,11.91-12.1,12.89-.14,25.79-.04,38.69-.04v-.03Z"/></g></svg>