<?xml version="1.0" encoding="UTF-8"?><svg id="Layer_1" xmlns="http://www.w3.org/2000/svg" viewBox="0 0 805.08 190.71"><defs><style>.cls-1,.cls-2{fill:#f07c22;}.cls-3{fill:#fff;}.cls-4{fill:#fcfdfd;}.cls-5{fill:#fdfefd;}.cls-6{fill:#3181bc;}.cls-7{fill:#f9fbfb;}.cls-8{fill:#52aa47;}.cls-9{fill:#fcfcfa;}.cls-10{fill:#cc3528;}.cls-11{fill:#faf8f6;}.cls-2{stroke:#fff;stroke-miterlimit:10;stroke-width:5px;}.cls-12{fill:#f8faf8;}</style></defs><path class="cls-6" d="M167.89,88.8l-12.23,101h-46.16L85.66,.26h32.71l18.04,149.46L152.6,.26h32.41l16.81,150.55L219.25,.26h29.35l-23.85,189.54h-44.63l-12.23-101Z"/><path class="cls-1" d="M542.64,189.79c-1.83-4.88-3.06-7.86-3.06-23.32v-29.82c0-17.62-6.73-24.13-22.01-24.13h-11.62v77.27h-33.63V0h50.75c34.85,0,49.83,14.37,49.83,43.65v14.91c0,19.52-7.03,32.26-22.01,38.5,16.81,6.24,22.32,20.61,22.32,40.4v29.28c0,9.22,.31,16,3.67,23.05h-34.24ZM505.96,27.11v58.29h13.15c12.53,0,20.18-4.88,20.18-20.06v-18.71c0-13.56-5.2-19.52-17.12-19.52h-16.2Z"/><path class="cls-8" d="M639.24,114.15l-10.39,17.35v58.29h-33.63V0h33.63V82.7L672.87,0h33.63l-46.77,84.59,46.77,105.2h-34.55l-32.71-75.65Z"/><path class="cls-1" d="M13.96,56.34h-.03c-.71,0-1.29,.58-1.29,1.29v48.71c-.01,.77-.64,1.4-1.42,1.39l-9.84-.08c-.77,0-1.39-.63-1.38-1.4L.33,39.9c0-.77,.63-1.39,1.39-1.39h62.55c.77,0,1.39,.62,1.39,1.39l.23,66.43c0,.78-.63,1.4-1.4,1.4l-9.88-.08c-.77,0-1.38-.63-1.38-1.39V57.63c0-.71-.57-1.29-1.29-1.29h-.03c-.71,0-1.29,.58-1.29,1.29V189.27c0,.77-.63,1.39-1.4,1.39h-13.58c-.77,0-1.39-.62-1.39-1.39l-.06-71.19c0-.71-.58-1.29-1.29-1.29h0c-.71,0-1.29,.58-1.29,1.29l-.3,71.11c0,.76-.62,1.38-1.39,1.39l-13.23,.08c-.77,0-1.4-.62-1.4-1.39l-.04-131.63c0-.71-.58-1.29-1.29-1.29Z"/><rect class="cls-1" x="16.33" y=".26" width="34.61" height="29.51" rx="1.59" ry="1.59"/><path class="cls-10" d="M761.88,.97c28.35,0,42.93,16.96,42.93,46.64v5.83h-27.56v-7.68c0-13.25-5.3-18.29-14.57-18.29s-14.58,5.04-14.58,18.29c0,38.16,56.97,45.31,56.97,98.31,0,29.68-14.84,46.64-43.46,46.64s-43.46-16.96-43.46-46.64v-11.4h27.56v13.25c0,13.25,5.83,18.02,15.1,18.02s15.11-4.77,15.11-18.02c0-38.16-56.98-45.31-56.98-98.31,0-29.68,14.58-46.64,42.93-46.64Z"/><rect class="cls-8" x="362.65" y=".26" width="88.78" height="92.83" rx="2.21" ry="2.21"/><rect class="cls-6" x="266.71" y=".26" width="89.74" height="92.83" rx="2.21" ry="2.21"/><rect class="cls-1" x="362.44" y="97.75" width="88.78" height="92.83" rx="2.21" ry="2.21"/><rect class="cls-10" x="266.51" y="97.75" width="89.74" height="92.83" rx="2.21" ry="2.21"/><ellipse class="cls-2" cx="359.14" cy="97.75" rx="26.82" ry="26.97"/><g><path class="cls-3" d="M348.76,84.52c-1.88,0-3.41,1.54-3.41,3.43v8.96l16.86-12.39h-13.45Z"/><path class="cls-3" d="M345.34,108.02c0,1.9,1.53,3.43,3.41,3.43h2.81v-14.05l-6.22,4.58v6.04Z"/><path class="cls-3" d="M367.14,84.46l.02,1.46v25.53h1.56c1.88,0,3.41-1.53,3.41-3.43v-20.07c0-1.79,.34-4.08-5-3.49Z"/><polygon class="cls-3" points="358.98 100.34 359.01 96.05 362.85 93.12 362.85 89.13 355.48 94.6 355.48 111.45 358.91 111.45 358.96 103.77 362.85 101.12 362.85 97.48 358.98 100.34"/></g><g><path class="cls-5" d="M415.54,159.98c-.11,1.84,1.24,2.6,2.53,3.34,2.74,1.56,5.81,2.33,8.72,3.48,3.22,1.27,6.13,2.94,8.52,5.47,.54,.57,.88,1.25,1.01,2.04,.24,1.42-.31,2.24-1.73,2.43-.44,.06-.88,.05-1.32,.05-16.26,0-32.53,0-48.79,0-.88,0-1.77-.03-2.65-.1-2.13-.17-2.84-1.42-1.77-3.28,1.4-2.43,3.66-3.91,6.07-5.18,3.12-1.64,6.5-2.61,9.76-3.92,1.12-.45,2.27-.84,3.17-1.7,1.77-1.68,2.42-6.2,1.08-8.28-1.58-2.45-2.8-4.98-2.81-7.99,0-1.23-1.02-2.14-1.27-3.36-.39-1.87-.59-3.61,0-5.53,.41-1.32,.09-2.86,.18-4.3,.27-4.63,2.15-8.38,6.68-9.91,4.85-1.64,9.73-1.54,13.77,2.27,2.37,2.24,3.14,5.24,3.19,8.45,.02,1.43-.26,2.89,.4,4.26,1.44,6.56-1.83,11.06-8.26,11.73-.79,.08-1.5-.28-2.25-.48-2.65-.72-4.7,.99-4.14,3.41,.47,2.02,2.67,2.89,4.61,1.68,1.5-.94,3.13-1.36,4.83-1.59,1.3-.17,1.7,.38,1.08,1.53-.96,1.77-.85,3.6-.61,5.47Z"/><path class="cls-11" d="M421.57,137.5c1.68-4.17,.42-7.94-2.07-11.18-4.43-5.77-10.41-7.26-17.24-4.75-4.92,1.81-9.43,8.86-8.45,13.94,.55,2.87,.6,5.71,.8,8.57,.08,1.07,.44,2.32-1.21,2.63-1.72,.32-3.46-.38-3.82-1.79-.54-2.16-.63-4.38-.35-6.6,.07-.61,.32-1.27,.89-1.53,1.34-.62,1.41-1.76,1.48-3.01,.34-6.29,3.47-10.82,8.91-13.76,10.2-5.52,23.3,1.84,23.96,13.45,.08,1.38-.13,2.82,1.56,3.45,.17,.06,.28,.33,.41,.51,1,1.41,.46,7.29-.78,8.48-.12,.11-.19,.35-.31,.37-3.29,.69-4.81,4.05-7.8,5.18-1.38,.65-2.71,1.43-4.24,1.67-1.22,.2-2.31,.57-3.33,1.33-1.08,.8-2.59,.55-3.48-.37-.76-.8-.9-2.45-.29-3.42,.63-.99,2.1-1.63,3.2-1.02,1.79,.99,3.43,.49,5.1-.07,2.11-.7,4.14-1.64,5.59-3.39,1.01-1.22,.87-2.81,.96-4.3,.08-1.48-.16-2.99,.5-4.41Z"/><path class="cls-1" d="M421.57,137.5c-.08,2.55-.18,5.1-.25,7.65-.03,1.11-.91,1.64-1.59,2.2-2.21,1.84-4.83,2.86-7.64,3.39-.83,.16-1.56,.15-2.32-.45-1.08-.85-2.28-.53-3.07,.46-.79,.99-.82,2.27,.15,3.16,.97,.89,2.21,1.06,3.25-.02,.58-.6,1.24-.82,2.02-1,1.82-.41,3.62-.94,5.42-1.42,0,.97-.87,.61-1.49,.89,.95,.83,1.17,1.66,.37,2.69-1.12,1.46-.75,3.25-.89,4.93-.29-2.01-.84-4.04,.46-5.93,.15-.21,.34-.51,.06-.72-.14-.11-.44-.11-.62-.04-1.67,.65-3.56,.51-5.06,1.83-1.23,1.08-3.25,.69-4.38-.5-1.14-1.2-1.24-3.22-.23-4.6,.96-1.3,2.86-1.68,4.49-.9,1.86,.88,7.6-.8,8.36-2.58,1.12-2.64,2.19-5.33,1.67-8.32,1.09,.97,.68-.81,1.29-.72Z"/></g><g><path class="cls-4" d="M379.99,47.25c-.23-17.11,15.02-30.02,31.72-27.08,3.3,.58,6.28,1.8,9.18,3.36,1.54,.82,.77,2.12,.81,3.26,.04,1.11-.69,1.74-1.5,2.27-.4,.26-.66-.17-.96-.36-13.53-8.97-31.45-1.19-33.9,14.98-1.9,12.53,6.73,23.37,18.49,25.01,14.48,2.03,26.48-9.83,24.93-24.49-.35-3.31-1.47-6.44-3.4-9.18-.76-1.08-.68-1.77,.39-2.48,1.53-1.01,3.99-.51,4.86,1.03,7.45,13.21,2.48,30.31-10.88,37.41-16.15,8.59-35.89-.99-39.36-19.09-.3-1.58-.32-3.18-.39-4.64Z"/><path class="cls-4" d="M407.76,29.91c2.26-.12,4.93,.85,7.52,2.1,1.12,.54,1.17,.95,.26,2.04-1.71,2.05-3.33,2.21-5.86,1.47-4.7-1.37-8.86,.25-11.88,4.09-3.01,3.83-3.47,8.17-1.28,12.58,2.3,4.63,7.06,7.15,11.88,6.53,5.02-.64,9.18-4.52,10.16-9.64,.41-2.17,.35-4.41-.66-6.42-.63-1.26-.3-1.96,.6-2.88,2.92-2.99,2.53-3.12,4.25,.94,4.51,10.66-3.81,23.18-15.34,23.19-6.99,0-12.31-3.06-15.48-9.3-3.13-6.18-2.55-12.33,1.56-17.92,3.32-4.52,7.96-6.7,14.26-6.78Z"/><path class="cls-7" d="M407.14,48.36c-.69-.09-1.16-.34-1.39-.86-.26-.6-.05-1.17,.36-1.62,.89-.97,1.8-1.93,2.73-2.86,4.51-4.53,9.03-9.06,13.57-13.57,.65-.65,1-1.38,.98-2.26-.06-1.93,.7-3.47,2.03-4.84,1.11-1.14,2.08-2.42,3.12-3.62,.27-.31,.58-.73,1.05-.51,.4,.18,.24,.65,.29,1.01,.07,.58,.16,1.16,.21,1.74,.24,2.69,.28,2.7,3.04,2.88,.86,.06,2.16-.42,2.47,.48,.32,.91-1.03,1.29-1.63,1.9-.82,.83-1.79,1.49-2.6,2.32-1.31,1.33-2.88,1.97-4.7,1.93-1.06-.02-1.8,.44-2.5,1.14-5.11,5.17-10.23,10.35-15.35,15.51-.51,.52-.99,1.1-1.65,1.23Z"/><path class="cls-12" d="M407.11,53.7c-4.03,.04-7.11-3.14-6.89-7.09,.23-4.04,3.76-6.97,7.71-6.45,.91,.12,1.02,.46,.42,1.08-1.11,1.15-2.25,2.26-3.36,3.4-1.36,1.41-1.39,3.25-.09,4.54,1.22,1.21,2.99,1.14,4.38-.2,1.14-1.1,2.26-2.23,3.39-3.35,.22-.22,.43-.55,.79-.41,.34,.14,.28,.54,.32,.85,.57,4.23-3.2,7.95-6.67,7.62Z"/></g><g><path class="cls-5" d="M334.18,50.83c0,4.64-.04,9.29,.02,13.93,.02,1.5-.56,2.12-2.03,2.07-1.65-.06-3.3-.07-4.95,0-1.58,.06-1.99-.83-1.99-2.19,0-4.92,0-9.84,0-14.76,0-4.31,0-8.62,.02-12.93,.01-1.94,.39-2.3,2.33-2.31,1.54,0,3.08,.04,4.62,.02,1.42-.02,2.04,.54,2.01,2.08-.08,4.7-.03,9.4-.03,14.1Z"/><path class="cls-9" d="M330.63,22.05c-2.51,3.88-5.2,7.08-8.29,9.93-4.78,4.41-10.24,7.7-16.17,10.28-4.64,2.02-9.42,3.47-14.45,4.03-1.42,.16-2.85,.16-4.28,.15-.91,0-1.64-.39-1.59-1.47,.05-1.09,.68-1.48,1.75-1.48,9.37,.05,17.64-3.42,25.48-8.16,5.66-3.42,10.31-7.98,14.12-13.39,.36-.51,1.1-1.16,.75-1.71-.39-.61-1.2-.03-1.8,.1-.96,.21-1.89,.57-2.86,.76-.72,.14-1.49,.06-1.72-.85-.23-.93,.1-1.67,1.05-1.95,2.83-.84,5.66-1.64,8.5-2.44,1.33-.38,2.06,.38,2.21,1.54,.36,2.79,.59,5.59,.82,8.4,.06,.79,.2,1.71-1.07,1.83-1.18,.11-1.67-.37-1.77-1.53-.11-1.2-.38-2.38-.66-4.04Z"/><path class="cls-5" d="M321,55.12c0,3.26-.04,6.51,.02,9.77,.02,1.37-.41,2.02-1.88,1.93-1.7-.1-3.4-.05-5.11,0-1.31,.03-1.95-.53-1.94-1.85,.01-6.51,.02-13.03,.03-19.54,0-1.34,.51-2.02,1.99-1.93,1.7,.11,3.41,.1,5.11,.01,1.4-.08,1.84,.54,1.82,1.84-.04,3.26-.01,6.51-.01,9.77h-.01Z"/><path class="cls-5" d="M307.8,57.87c0,2.43-.01,4.86,0,7.29,0,1.2-.58,1.68-1.74,1.66-1.76-.03-3.52-.06-5.28,0-1.28,.05-1.89-.61-1.9-1.75-.02-4.64,.04-9.28,.06-13.92,0-1.36,.64-2,2.05-1.94,1.59,.06,3.19,.04,4.78-.02,1.45-.05,2.08,.58,2.05,2.05-.05,2.21-.01,4.42-.01,6.63h-.02Z"/><path class="cls-5" d="M285.78,58.93c0-1.99,0-3.98,0-5.98,0-1.14,.46-1.7,1.67-1.67,1.81,.04,3.63-.01,5.45-.03,1.05,0,1.8,.29,1.79,1.55-.02,4.2,0,8.4-.02,12.6,0,1.03-.56,1.42-1.57,1.4-1.82-.04-3.63,0-5.45,.02-1.3,.01-1.91-.6-1.89-1.92,.03-1.99,0-3.98,0-5.98h.02Z"/></g><g><path class="cls-5" d="M303.41,141.25c5.06,0,10.12-.04,15.17,.02,2.66,.03,3.97,1.45,3.97,4.15,.01,6.44-.01,12.88-.02,19.32,0,3.01-1.27,4.36-4.42,4.42-6.29,.11-12.59,.07-18.88,0-1.23-.01-2.1,.37-2.93,1.25-1.68,1.77-3.45,3.46-5.17,5.19-.4,.4-.86,.99-1.35,.82-.67-.23-.51-1.04-.52-1.65,0-1.41-.02-2.82,0-4.24,0-.93-.27-1.35-1.35-1.42-3.1-.19-4.19-1.49-4.19-4.63,0-6.27,0-12.54,0-18.81,0-3.07,1.14-4.37,4.17-4.41,4.61-.06,9.22,0,13.83,.02,.56,0,1.12,0,1.68,0v-.04Z"/><path class="cls-5" d="M322.96,130.01c5.23,0,10.45-.01,15.68,0,2.86,.01,4.34,1.47,4.35,4.35,.03,6.33,.02,12.65,0,18.98-.01,3.05-1.28,4.41-4.27,4.47-1.13,.02-1.31,.57-1.32,1.46-.02,1.58-.03,3.16-.07,4.74-.01,.44-.01,.99-.53,1.14-.51,.14-.87-.15-1.26-.57-1.79-1.91-3.67-3.75-5.51-5.62-.75-.76-1.64-1.25-2.71-1.07-1.73,.28-2.02-.52-1.97-2.07,.11-3.44,.09-6.89,.02-10.33-.06-2.84-1.13-5.15-3.84-6.41-1.14-.53-2.38-.61-3.61-.61-4.66,0-9.33-.04-13.99,.02-1.25,.02-1.78-.37-1.67-1.63,.05-.62,0-1.24-.01-1.86-.11-3.75,1.26-4.92,4.88-4.96,5.28-.06,10.56-.02,15.85-.02h0Z"/></g></svg>